# xmcd CD database file
#
# Track frame offsets:
#	150
#	21738
#	48307
#
# Disc length: 921 seconds
#
# Revision: 1
# Processed by: cddbd v1.5.2PL0 Copyright (c) Steve Scherf et al.
# Submitted via: CDex 1.70beta2
#
DISCID=23039703
DTITLE=October File - Hallowed Be Thy Army (EP)
DYEAR=2006
DGENRE=Metal
TTITLE0=Hallowed Be Thy Army
TTITLE1=Friendly Fire
TTITLE2=In My Magnificent Circus
EXTD=YEAR: 2006
EXTT0=
EXTT1=
EXTT2=
PLAYORDER=
